<?xml version="1.0" encoding="utf-8"?>
<!-- Generator: Adobe Illustrator 22.0.1, SVG Export Plug-In . SVG Version: 6.00 Build 0)  -->
<!DOCTYPE svg PUBLIC "-//W3C//DTD SVG 1.1//EN" "http://www.w3.org/Graphics/SVG/1.1/DTD/svg11.dtd">
<svg version="1.1" id="Layer_1" xmlns="http://www.w3.org/2000/svg" xmlns:xlink="http://www.w3.org/1999/xlink" x="0px" y="0px"
	 width="122.8px" height="31.9px" viewBox="0 0 122.8 31.9" style="enable-background:new 0 0 122.8 31.9;" xml:space="preserve">
<style type="text/css">
	.st0{fill:#1783FA;}
</style>
<path id="Path_1" class="st0" d="M84.3,5.3h-1.2c-0.5,0-0.9,0.4-0.9,0.9v2.4l0,0v10.2c0,3.5,2.2,6.1,5.7,6.1h2.2
	c0.5,0,0.9-0.4,0.9-0.9v-0.8c0-0.5-0.4-0.9-0.9-0.9c0,0-0.1,0-0.1,0h-1.7c-2.3,0-3.1-1.5-3.2-4.6l0,0v-6.3h4.9
	c0.5,0,0.9-0.4,0.9-0.9V9.6c0-0.5-0.4-0.9-0.9-0.9h-4.9V6.3c0-0.5-0.3-0.9-0.8-0.9C84.4,5.3,84.4,5.3,84.3,5.3"/>
<path id="Path_2" class="st0" d="M110.7,8.6h-1.5c-1.7-0.1-3.3,0.6-4.4,1.9c-1.1-1.3-2.7-2-4.4-1.9h-1.5c-3.7,0-5.9,2.8-5.9,6.3v9
	c0,0.5,0.4,0.9,0.9,0.9h1.2c0.5,0,0.9-0.4,0.9-0.9v-8.5c0-2.2,1-4.1,3.6-4.1s3.5,1.9,3.5,4.1v8.5c0,0.5,0.4,0.9,0.9,0.9h1.2
	c0.5,0,0.9-0.4,0.9-0.9v-8.5c0-2.2,1-4.1,3.6-4.1s3.5,1.9,3.5,4.1v8.5c0,0.5,0.4,0.9,0.9,0.9h1.1c0.5,0,0.9-0.4,0.9-0.9v-9
	C116.5,11.4,114.3,8.6,110.7,8.6"/>
<path id="Path_3" class="st0" d="M77.5,8.6c-3.7,0-5.9,2.8-5.9,6.3v9c0,0.5,0.4,0.9,0.9,0.9h1.2c0.5,0,0.9-0.4,0.9-0.9v-8.5
	c0-2.2,1-4.1,3.6-4.1h1.2c0.5,0,0.9-0.4,0.9-0.9V9.6c0-0.5-0.4-0.9-0.9-0.9L77.5,8.6L77.5,8.6z"/>
<path id="Path_4" class="st0" d="M68,6.9h-1.4c-0.5,0-1-0.5-1-1V4.5c0-0.5,0.5-1,1-1H68c0.5,0,1,0.5,1,1v1.4C69,6.4,68.5,6.9,68,6.9
	"/>
<path id="Path_5" class="st0" d="M62.4,13.4c-1.8-4.2-6.7-6.2-10.9-4.4s-6.2,6.7-4.4,10.9c1.3,3.1,4.3,5.1,7.7,5.1h2.5
	c0.5,0,0.9-0.2,0.9-0.8v-1.1c0-0.5-0.5-0.8-0.9-0.8h-2.4c-2.9-0.2-5.3-2.5-5.4-5.5c-0.1-2.9,2.2-5.4,5.2-5.5c0.1,0,0.1,0,0.2,0
	c1.8,0,3.5,0.9,4.5,2.4c0.5,0.9,0.8,1.8,0.8,2.9V24c0,0.5,0.4,0.9,0.9,0.9h1.1c0.5,0,0.9-0.4,0.9-0.9v-7.4
	C63.1,15.5,62.8,14.4,62.4,13.4"/>
<path id="Path_6" class="st0" d="M66.7,24.9h1.1c0.5,0,0.9-0.4,0.9-0.9V9.6c0-0.5-0.4-0.9-0.9-0.9h-1.2c-0.5,0-0.9,0.4-0.9,0.9v14.4
	C65.7,24.5,66.2,24.9,66.7,24.9C66.7,24.9,66.7,24.9,66.7,24.9"/>
<path id="Path_7" class="st0" d="M32.1,10.3c0.2-4.5-2.6-8.6-6.9-9.9C24.3,0.2,23.3,0,22.4,0h-0.6c-3,0.2-5.6,1.8-7.3,4.2
	C12.2,3.5,9.8,3.7,7.9,5C5.8,6.3,4.4,8.4,4,10.9c-2.6,1.6-4.2,4.5-4,7.5C0.2,22.7,3.7,26,8,26.1h4.1c0.1,0,0.1-0.1,0.2-0.2l0.2-2.1
	c0-0.1,0-0.1-0.1-0.2c0-0.1-0.1-0.1-0.2-0.1H7.7c-1.5,0-2.9-0.6-3.9-1.7c-1-1.1-1.5-2.6-1.5-4.1c0.2-2.1,1.5-4,3.4-4.9l0.4-0.2
	c0.1,0,0.1-0.1,0.1-0.2l0.1-0.9C6.4,9.8,7.5,8.2,9,7.3c0.9-0.6,1.9-0.9,2.9-0.9c0.7,0,1.5,0.2,2.2,0.5l1,0.5c0.1,0,0.2,0,0.2,0
	c0,0,0,0,0-0.1L16,6.1c1.2-2.1,3.4-3.4,5.8-3.6c0.9,0,1.8,0.1,2.6,0.3c3.3,1.1,5.4,4.3,5.1,7.8l-0.2,1.3c0,0.1,0.1,0.2,0.2,0.2
	l1.2,0.3c2.4,0.7,4,2.9,3.9,5.4c0.1,3-2.3,5.6-5.3,5.6c0,0,0,0,0,0h-3.6c-0.1,0-0.1,0-0.2,0.1c0,0.1-0.1,0.1-0.1,0.2l0.2,2.1
	c0,0.1,0.1,0.2,0.2,0.2h3.6c4.4-0.1,7.9-3.8,7.8-8.2C37.1,14.5,35.2,11.6,32.1,10.3z"/>
<path id="Path_8" class="st0" d="M17.4,19.5c-1.2,0.5-2.5,0.7-3.9,0.6L12.9,31c0,0.5,0.3,0.9,0.8,0.9c0,0,0,0,0,0h10.5
	c0.4,0,0.8-0.3,0.9-0.7c0-0.1,0-0.1,0-0.2l-0.7-10.7C22.1,20.9,19.6,20.6,17.4,19.5z M19.2,28.2v0.8c0,0.2-0.1,0.3-0.3,0.3
	c-0.2,0-0.3-0.1-0.3-0.3c0,0,0,0,0,0v-0.8c-0.5,0-1-0.2-1.4-0.5c-0.1-0.1-0.2-0.2-0.2-0.4c0-0.3,0.2-0.5,0.5-0.5
	c0.2,0,0.2,0,0.3,0.1c0.3,0.2,0.7,0.3,1.1,0.3c0.5,0,0.8-0.2,0.8-0.6c0-0.3-0.2-0.5-0.8-0.5h-0.3c-1.1-0.2-1.6-0.6-1.6-1.5
	c0-0.9,0.7-1.5,1.5-1.5v-0.7c0-0.2,0.2-0.3,0.3-0.3c0.2,0,0.3,0.1,0.3,0.3V23c0.4,0,0.8,0.2,1.2,0.3c0.2,0.1,0.3,0.3,0.2,0.5
	c0,0.2-0.2,0.5-0.4,0.5c0,0,0,0,0,0c-0.1,0-0.2,0-0.3-0.1c-0.2-0.1-0.5-0.2-0.8-0.2h-0.2c-0.3,0-0.6,0.2-0.6,0.5c0,0,0,0,0,0.1
	c0,0.3,0.2,0.5,0.8,0.5h0.3c1.1,0.2,1.6,0.6,1.6,1.5c0,0.9-0.7,1.6-1.6,1.6C19.3,28.2,19.3,28.2,19.2,28.2z"/>
<path id="Path_9" class="st0" d="M119.1,6.5v2h-0.5v-2h-0.8V6.1h2v0.5L119.1,6.5L119.1,6.5z M122.5,8.5V6.9l-0.7,1.5h-0.4l-0.7-1.5
	v1.5h-0.5V6.1h0.7l0.7,1.7l0.7-1.7h0.6v2.5L122.5,8.5L122.5,8.5z"/>
</svg>
